<svg xmlns="http://www.w3.org/2000/svg" version="1.1" width="350px" height="150px" style="shape-rendering:geometricPrecision; text-rendering:geometricPrecision; image-rendering:optimizeQuality; fill-rule:evenodd; clip-rule:evenodd" xmlns:xlink="http://www.w3.org/1999/xlink" transform="rotate(0) scale(1, 1)"><g><path style="opacity:0.998" fill="#ffffff" d="M 21.5,49.5 C 29.6647,48.1752 33.498,51.5085 33,59.5C 31.0892,64.418 27.5892,66.2514 22.5,65C 15.3773,60.1201 15.044,54.9534 21.5,49.5 Z" ></path></g><g><path style="opacity:0.973" fill="#ffffff" d="M 99.5,50.5 C 101.833,50.5 104.167,50.5 106.5,50.5C 106.333,62.5046 106.5,74.5046 107,86.5C 108.113,87.7111 109.28,87.7111 110.5,86.5C 111.635,88.7067 112.301,91.0401 112.5,93.5C 106.806,95.5678 102.64,93.9011 100,88.5C 99.5001,75.8377 99.3334,63.1711 99.5,50.5 Z" ></path></g><g><path style="opacity:0.974" fill="#ffffff" d="M 286.5,50.5 C 288.833,50.5 291.167,50.5 293.5,50.5C 293.833,64.5159 293.499,78.5159 292.5,92.5C 271.469,97.635 263.636,89.635 269,68.5C 273.523,62.9924 279.356,60.9924 286.5,62.5C 286.5,58.5 286.5,54.5 286.5,50.5 Z M 280.5,68.5 C 282.5,68.8333 284.5,69.1667 286.5,69.5C 286.5,75.5 286.5,81.5 286.5,87.5C 275.554,88.3404 271.721,83.3404 275,72.5C 276.5,70.5313 278.333,69.198 280.5,68.5 Z" ></path></g><g><path style="opacity:0.11" fill="#ffffff" d="M 178.5,54.5 C 175.941,54.1984 173.607,54.5318 171.5,55.5C 170.957,55.44 170.624,55.1067 170.5,54.5C 173.309,53.1997 175.976,53.1997 178.5,54.5 Z" ></path></g><g><path style="opacity:0.949" fill="#ffffff" d="M 64.5,53.5 C 70.5092,53.3338 76.5092,53.5005 82.5,54C 93.928,57.1672 96.2613,63.5006 89.5,73C 94.5959,77.2485 95.7625,82.4151 93,88.5C 91.786,90.0488 90.286,91.2155 88.5,92C 80.5852,93.4011 72.5852,93.9011 64.5,93.5C 64.5,80.1667 64.5,66.8333 64.5,53.5 Z M 71.5,60.5 C 75.9362,60.2101 80.2695,60.7101 84.5,62C 87.1667,64.3333 87.1667,66.6667 84.5,69C 80.2467,69.1998 76.08,69.6998 72,70.5C 71.5017,67.1832 71.335,63.8499 71.5,60.5 Z M 71.5,76.5 C 75.5138,76.3345 79.5138,76.5012 83.5,77C 88.384,79.5275 88.7173,82.5275 84.5,86C 80.1794,86.499 75.8461,86.6657 71.5,86.5C 71.5,83.1667 71.5,79.8333 71.5,76.5 Z" ></path></g><g><path style="opacity:0.993" fill="#ffffff" d="M 171.5,55.5 C 173.607,54.5318 175.941,54.1984 178.5,54.5C 182.476,59.7676 185.976,65.4343 189,71.5C 192.5,65.8333 196,60.1667 199.5,54.5C 202.167,53.1667 204.833,53.1667 207.5,54.5C 202.375,62.5832 197.375,70.7499 192.5,79C 193.469,83.7367 193.803,88.57 193.5,93.5C 190.833,93.5 188.167,93.5 185.5,93.5C 185.666,88.1563 185.499,82.8229 185,77.5C 180.275,70.2814 175.775,62.948 171.5,55.5 Z" ></path></g><g><path style="opacity:0.98" fill="#ffffff" d="M 154.5,62.5 C 168.89,60.5548 175.557,66.8882 174.5,81.5C 167.492,81.3337 160.492,81.5004 153.5,82C 154.5,84.3333 156.167,86 158.5,87C 163.174,87.3334 167.84,87.1667 172.5,86.5C 172.92,88.674 172.92,90.674 172.5,92.5C 154.03,98.1786 145.53,91.5119 147,72.5C 148.213,68.1305 150.713,64.7972 154.5,62.5 Z M 159.5,68.5 C 164.222,68.5551 166.555,70.8885 166.5,75.5C 162.116,75.8256 157.783,75.4922 153.5,74.5C 154.577,71.4228 156.577,69.4228 159.5,68.5 Z" ></path></g><g><path style="opacity:0.985" fill="#ffffff" d="M 211.5,62.5 C 227.075,60.9111 233.575,67.9111 231,83.5C 227.284,93.1901 220.451,96.3567 210.5,93C 203.904,87.7714 201.737,80.9381 204,72.5C 205.213,68.1305 207.713,64.7972 211.5,62.5 Z M 216.5,68.5 C 222.196,69.0341 224.862,72.2007 224.5,78C 224.162,87.082 219.995,89.582 212,85.5C 210.068,80.8058 210.068,76.1391 212,71.5C 213.409,70.2189 214.909,69.2189 216.5,68.5 Z" ></path></g><g><path style="opacity:0.886" fill="#ffffff" d="M 239.5,62.5 C 244.844,62.334 250.177,62.5006 255.5,63C 258.728,64.5629 260.895,67.0629 262,70.5C 262.5,78.1594 262.666,85.8261 262.5,93.5C 260.167,93.5 257.833,93.5 255.5,93.5C 255.666,86.1591 255.5,78.8258 255,71.5C 251.581,68.521 247.748,67.8544 243.5,69.5C 243.5,77.5 243.5,85.5 243.5,93.5C 241.167,93.5 238.833,93.5 236.5,93.5C 236.5,83.5 236.5,73.5 236.5,63.5C 237.791,63.7373 238.791,63.404 239.5,62.5 Z" ></path></g><g><path style="opacity:0.984" fill="#ffffff" d="M 306.5,62.5 C 321.036,60.5372 327.369,66.7039 325.5,81C 318.562,81.4292 311.896,81.5959 305.5,81.5C 306.301,84.1334 307.967,85.9667 310.5,87C 314.853,87.245 319.187,87.245 323.5,87C 324.858,88.8316 325.192,90.6649 324.5,92.5C 303.611,97.444 295.444,89.444 300,68.5C 302.063,66.2659 304.229,64.2659 306.5,62.5 Z M 311.5,68.5 C 316.177,68.5104 318.51,70.8438 318.5,75.5C 314.116,75.8256 309.783,75.4922 305.5,74.5C 306.577,71.4228 308.577,69.4228 311.5,68.5 Z" ></path></g><g><path style="opacity:0.974" fill="#ffffff" d="M 333.5,62.5 C 338.5,62.5 343.5,62.5 348.5,62.5C 348.326,64.861 347.993,67.1944 347.5,69.5C 344.167,69.5 340.833,69.5 337.5,69.5C 337.186,77.0871 337.519,84.5871 338.5,92C 336.063,93.3747 333.397,93.8747 330.5,93.5C 330.5,83.5 330.5,73.5 330.5,63.5C 331.791,63.7373 332.791,63.404 333.5,62.5 Z" ></path></g><g><path style="opacity:0.991" fill="#ffffff" d="M 115.5,62.5 C 117.833,62.5 120.167,62.5 122.5,62.5C 122.334,69.8409 122.5,77.1742 123,84.5C 123.5,85.6667 124.333,86.5 125.5,87C 128.482,87.498 131.482,87.6646 134.5,87.5C 134.5,79.1667 134.5,70.8333 134.5,62.5C 136.833,62.5 139.167,62.5 141.5,62.5C 141.832,72.5222 141.499,82.5222 140.5,92.5C 134.212,94.7453 127.878,94.9119 121.5,93C 119.083,91.3374 117.25,89.1707 116,86.5C 115.5,78.5069 115.334,70.5069 115.5,62.5 Z" ></path></g><g><path style="opacity:0.997" fill="#ffffff" d="M 6.5,65.5 C 12.356,67.0915 18.0227,69.2582 23.5,72C 24.5171,73.0495 24.6838,74.2161 24,75.5C 19.0546,78.3155 13.888,80.6488 8.5,82.5C 1.70137,81.2425 -0.798629,77.2425 1,70.5C 2.40552,68.2563 4.23885,66.5897 6.5,65.5 Z" ></path></g><g><path style="opacity:0.996" fill="#ffffff" d="M 40.5,65.5 C 48.8679,66.3494 51.7012,70.6827 49,78.5C 47.3805,80.7262 45.2138,82.0596 42.5,82.5C 36.3557,80.9313 31.0223,78.098 26.5,74C 26.6448,73.228 26.9781,72.5613 27.5,72C 32.0163,69.9032 36.3496,67.7365 40.5,65.5 Z" ></path></g><g><path style="opacity:1" fill="#ffffff" d="M 22.5,82.5 C 31.3649,82.8474 34.5316,87.1807 32,95.5C 25.0499,100.967 19.8832,99.467 16.5,91C 17.4182,87.3048 19.4182,84.4715 22.5,82.5 Z" ></path></g></svg>