<svg xmlns="http://www.w3.org/2000/svg" version="1.1" width="416px" height="130px" style="shape-rendering:geometricPrecision; text-rendering:geometricPrecision; image-rendering:optimizeQuality; fill-rule:evenodd; clip-rule:evenodd" xmlns:xlink="http://www.w3.org/1999/xlink" transform="rotate(0) scale(1, 1)"><g><path style="opacity:0.942" fill="#ffffff" d="M 63.5,-0.5 C 67.5,-0.5 71.5,-0.5 75.5,-0.5C 75.5,36.1667 75.5,72.8333 75.5,109.5C 71.5,109.5 67.5,109.5 63.5,109.5C 63.6653,105.818 63.4986,102.152 63,98.5C 58.5714,104.625 52.7381,108.625 45.5,110.5C 39.5,110.5 33.5,110.5 27.5,110.5C 11.9735,105.792 2.64019,95.4591 -0.5,79.5C -0.5,72.8333 -0.5,66.1667 -0.5,59.5C 5.94684,34.5861 21.9468,24.4195 47.5,29C 53.8427,31.3553 59.0094,35.1887 63,40.5C 63.4999,26.8374 63.6666,13.1707 63.5,-0.5 Z M 32.5,38.5 C 47.3889,38.5455 56.5556,45.8788 60,60.5C 63.4002,75.4549 59.2335,87.6215 47.5,97C 28.5809,103.416 16.7476,96.9162 12,77.5C 9.27504,64.0143 12.775,52.5143 22.5,43C 25.8153,41.1702 29.1486,39.6702 32.5,38.5 Z" ></path></g><g><path style="opacity:0.878" fill="#ffffff" d="M 99.5,8.5 C 107.244,9.07161 110.077,13.0716 108,20.5C 103.994,25.1659 99.4944,25.6659 94.5,22C 90.7797,15.4612 92.4463,10.9612 99.5,8.5 Z" ></path></g><g><path style="opacity:0.878" fill="#ffffff" d="M 415.5,13.5 C 415.5,15.5 415.5,17.5 415.5,19.5C 412.224,24.1987 407.89,25.3654 402.5,23C 397.391,15.8173 399.057,10.9839 407.5,8.5C 410.91,9.19348 413.577,10.8601 415.5,13.5 Z" ></path></g><g><path style="opacity:0.919" fill="#ffffff" d="M 226.5,27.5 C 240.818,26.0762 251.651,31.4095 259,43.5C 259.822,45.7885 260.489,48.1218 261,50.5C 261.833,70.1751 261.666,89.8418 260.5,109.5C 255.277,108.44 251.777,105.44 250,100.5C 249.667,84.1667 249.333,67.8333 249,51.5C 247.938,45.4379 244.438,41.6046 238.5,40C 229.235,37.1925 221.068,39.0258 214,45.5C 212.991,47.0249 212.491,48.6916 212.5,50.5C 208.833,50.5 205.167,50.5 201.5,50.5C 201.698,41.2777 206.031,34.7777 214.5,31C 218.543,29.5086 222.543,28.3419 226.5,27.5 Z" ></path></g><g><path style="opacity:0.907" fill="#ffffff" d="M 304.5,29.5 C 311.087,29.3754 317.42,30.542 323.5,33C 327,35.1667 329.833,38 332,41.5C 344.462,28.4759 358.628,26.3093 374.5,35C 379.91,39.986 383.077,46.1527 384,53.5C 384.5,72.1637 384.667,90.8304 384.5,109.5C 380.167,109.5 375.833,109.5 371.5,109.5C 371.667,90.4971 371.5,71.4971 371,52.5C 369.107,43.9428 363.774,39.9428 355,40.5C 347.063,40.6365 341.396,44.3032 338,51.5C 336.55,70.7787 336.05,90.112 336.5,109.5C 332.167,109.5 327.833,109.5 323.5,109.5C 323.667,90.4971 323.5,71.4971 323,52.5C 318.623,40.7375 310.457,37.2375 298.5,42C 294.612,44.2215 291.779,47.3882 290,51.5C 289.5,70.8305 289.333,90.1638 289.5,109.5C 285.167,109.5 280.833,109.5 276.5,109.5C 276.5,83.5 276.5,57.5 276.5,31.5C 280.833,31.5 285.167,31.5 289.5,31.5C 289.343,32.8734 289.51,34.2068 290,35.5C 294.581,32.5923 299.414,30.5923 304.5,29.5 Z" ></path></g><g><path style="opacity:0.915" fill="#ffffff" d="M 123.5,30.5 C 126.247,30.1866 128.914,30.52 131.5,31.5C 139.909,51.3145 148.576,70.9812 157.5,90.5C 166.095,71.2179 174.595,51.8846 183,32.5C 187.413,31.3676 191.913,31.2009 196.5,32C 185.204,57.4262 174.038,82.9262 163,108.5C 159.27,109.46 155.437,109.793 151.5,109.5C 140.794,83.7494 129.794,58.0828 118.5,32.5C 120.291,31.8302 121.958,31.1635 123.5,30.5 Z" ></path></g><g><path style="opacity:0.9" fill="#ffffff" d="M 94.5,31.5 C 98.8333,31.5 103.167,31.5 107.5,31.5C 107.5,57.5 107.5,83.5 107.5,109.5C 103.167,109.5 98.8333,109.5 94.5,109.5C 94.5,83.5 94.5,57.5 94.5,31.5 Z" ></path></g><g><path style="opacity:0.964" fill="#ffffff" d="M 401.5,31.5 C 405.5,31.5 409.5,31.5 413.5,31.5C 413.5,57.5 413.5,83.5 413.5,109.5C 409.5,109.5 405.5,109.5 401.5,109.5C 401.5,83.5 401.5,57.5 401.5,31.5 Z" ></path></g><g><path style="opacity:0.947" fill="#ffffff" d="M 231.5,110.5 C 226.167,110.5 220.833,110.5 215.5,110.5C 200.835,108.337 195.002,100.004 198,85.5C 203.833,74.3333 212.333,65.8333 223.5,60C 229.629,56.5998 235.963,53.7665 242.5,51.5C 241.295,58.8568 239.962,66.1901 238.5,73.5C 236.194,73.0074 233.861,72.6741 231.5,72.5C 232.057,70.0509 232.057,67.7175 231.5,65.5C 222.058,69.4631 214.225,75.4631 208,83.5C 201.919,96.1765 205.753,104.343 219.5,108C 224.833,108.333 230.167,108.667 235.5,109C 233.942,109.21 232.609,109.71 231.5,110.5 Z" ></path></g></svg>